<svg xmlns="http://www.w3.org/2000/svg" xmlns:xlink="http://www.w3.org/1999/xlink" viewBox="0 0 152.74 162.65"><defs><style>.cls-1,.cls-6,.cls-7{fill:none;}.cls-2{fill:#965450;}.cls-3{fill:#76413b;}.cls-4{fill:#ffa65b;}.cls-5{clip-path:url(#clip-path);}.cls-6,.cls-7{stroke:#765e69;stroke-miterlimit:10;}.cls-6{stroke-width:1.41px;}.cls-8{fill:#352c38;}.cls-9{fill:#fff;}</style><clipPath id="clip-path"><path class="cls-1" d="M144.5,134.82c-5.79-14.28-40.23-21.35-48.3-25.67a48.1,48.1,0,0,1-22.55,5.41,48.92,48.92,0,0,1-20-4.14c-11.32,4.41-40.2,11.43-45.45,24.4A151.1,151.1,0,0,0,0,162.65H152.74A151.1,151.1,0,0,0,144.5,134.82Z"/></clipPath></defs><g id="Calque_2" data-name="Calque 2"><g id="OBJECTS"><path class="cls-2" d="M143.45,135c-5.95-14.67-42.32-21.67-48.69-25.92-8.17-5.46-5.57-23.53-5.57-23.53l-13.38.32-13.38-.32s2.6,18.07-5.57,23.53C50.49,113.36,14.12,120.36,8.18,135A149.62,149.62,0,0,0,0,162.65H151.62A150,150,0,0,0,143.45,135Z"/><path class="cls-3" d="M60,105.74c6.27-.58,12.56-1.75,18-4.55A61.75,61.75,0,0,0,88.84,94a50.7,50.7,0,0,1,.35-8.45l-13.38.32-13.38-.32S64.28,98.44,60,105.74Z"/><path class="cls-4" d="M144.5,134.82c-5.79-14.28-40.23-21.35-48.3-25.67a48.1,48.1,0,0,1-22.55,5.41,48.92,48.92,0,0,1-20-4.14c-11.32,4.41-40.2,11.43-45.45,24.4A151.1,151.1,0,0,0,0,162.65H152.74A151.1,151.1,0,0,0,144.5,134.82Z"/><g class="cls-5"><line class="cls-6" x1="130.12" y1="110.27" x2="130.12" y2="176.79"/><line class="cls-6" x1="120.73" y1="110.27" x2="120.73" y2="176.79"/><line class="cls-6" x1="111.34" y1="110.27" x2="111.34" y2="176.79"/><line class="cls-6" x1="101.94" y1="110.27" x2="101.94" y2="176.79"/><line class="cls-6" x1="92.55" y1="110.27" x2="92.55" y2="176.79"/><line class="cls-6" x1="83.16" y1="110.27" x2="83.16" y2="176.79"/><line class="cls-6" x1="73.77" y1="110.27" x2="73.77" y2="176.79"/><line class="cls-6" x1="64.37" y1="110.27" x2="64.37" y2="176.79"/><line class="cls-6" x1="54.98" y1="110.27" x2="54.98" y2="176.79"/><line class="cls-6" x1="45.59" y1="110.27" x2="45.59" y2="176.79"/><line class="cls-6" x1="36.19" y1="110.27" x2="36.19" y2="176.79"/><line class="cls-6" x1="26.8" y1="110.27" x2="26.8" y2="176.79"/><line class="cls-6" x1="17.41" y1="110.27" x2="17.41" y2="176.79"/><line class="cls-6" x1="8.02" y1="110.27" x2="8.02" y2="176.79"/><line class="cls-6" x1="139.52" y1="110.27" x2="139.52" y2="176.79"/><line class="cls-7" x1="-4.98" y1="129.9" x2="154" y2="129.9"/><line class="cls-7" x1="-4.98" y1="138.52" x2="154" y2="138.52"/><line class="cls-7" x1="-4.98" y1="147.14" x2="154" y2="147.14"/><line class="cls-7" x1="-4.98" y1="155.76" x2="154" y2="155.76"/><line class="cls-7" x1="-4.98" y1="121.28" x2="154" y2="121.28"/></g><path class="cls-3" d="M53.35,57.41c-2.16-6.15-7.28-4.73-7.76-4.58S39.8,53.6,40.71,60s5,9.94,8.82,8.91C53.46,68.35,55.52,63.6,53.35,57.41Z"/><path class="cls-3" d="M97.61,57.41c2.16-6.15,7.27-4.73,7.75-4.58s5.79.77,4.88,7.18-5,9.94-8.82,8.91C97.49,68.35,95.43,63.6,97.61,57.41Z"/><path class="cls-2" d="M102.07,47.73c-2.68-27-25-25.45-27.13-25.25-2.11-.2-24.45-1.71-27.13,25.25C45.12,74.86,58.29,92.57,74.94,91.6,91.59,92.57,104.76,74.86,102.07,47.73Z"/><path class="cls-3" d="M76.42,70.55a8.52,8.52,0,0,1,3.09-3.27l-.15.41Q79,65,78.69,62.32c-.19-1.79-.41-3.58-.56-5.38.79,3.52,1.47,7.06,2.11,10.61l0,.19a8.53,8.53,0,0,1-3.85,2.81Z"/><path class="cls-8" d="M61,57.34c0,2,.82,3.68,1.84,3.68s1.83-1.64,1.83-3.68-.82-3.67-1.83-3.67S61,55.31,61,57.34Z"/><path class="cls-8" d="M86.26,57.34c0,2,.82,3.68,1.83,3.68s1.83-1.64,1.83-3.68-.82-3.67-1.83-3.67S86.26,55.31,86.26,57.34Z"/><path class="cls-8" d="M56.54,51.33c2.44-5.28,10.18-6.1,12.78-.49-.62-.24-1.13-.56-1.68-.79-3.73-2-7.58-.6-11.1,1.28Z"/><path class="cls-8" d="M81.93,51.33c2.44-5.28,10.18-6.1,12.78-.49-.62-.24-1.13-.56-1.68-.79-3.72-2-7.58-.6-11.1,1.28Z"/><path class="cls-9" d="M63.75,74.48l24.77-.21S77.75,83.43,63.75,74.48Z"/><path class="cls-8" d="M46.25,32.28S44.75,66,49,81.82C52.2,93.74,61.5,97,61.5,97s22,7.8,34.25-4.81c3.53-3.64,9-22.71,6.5-56.89l-9-3.44s1.5,16.74,6,18.81c0,0-1.32,29.92-7,33.49-4.75,3,3.25-13.77-6-13.54s-9.5.46-9.5.46-16.5-2.52-16.25,3.44,2,9.87-.25,9.87-10.5-4.82-9-36.25c0,0,4.75-1.6,4.75-12.61C56,21,46.25,32.28,46.25,32.28Z"/><path class="cls-8" d="M55,30.44s7.2,9,15.75,9c4.75,0,0-7.57,0-7.57s6.75,9.63,13.75,9.4,1-9.4,1-9.4,5.25,9.86,11.75,9.4,1-10.09,1-10.09,3,10.32,9.25,8.94S106,29.75,106,29.75s5.25,4.59,7.5,4.36,2.25-6.42-5.5-9.4c0,0,7.75-.23,8-3.68.29-3.89-4.75-5.27-16.25-4.12,0,0,9.5-3.67,7.5-6.89s-10.5,1.38-10.5,1.38,8.5-4.36,3.5-7.8C96.15.78,74.75.85,61.75,15.07c0,0,27-13.07,23.75-14.91C83.21-1.14,50.91,5.49,46,18.05c-6,15.37-1.5,24.09.44,34.55Z"/></g></g></svg>